<svg width="40" height="41" viewBox="0 0 40 41" fill="none" xmlns="http://www.w3.org/2000/svg">
<rect x="0.5" y="1.36768" width="39" height="39" rx="3.5" stroke="#D0E4F1"/>
<mask id="mask0_4632_4983" style="mask-type:luminance" maskUnits="userSpaceOnUse" x="8" y="9" width="25" height="24">
<path d="M19.7722 9.77481L16.5319 14.8271C16.376 15.0672 16.1265 15.2325 15.8458 15.2793L9.48673 16.3521C8.69146 16.4862 8.36088 17.4468 8.90665 18.0424L13.7438 23.3192C13.9434 23.5375 14.04 23.8338 14.0026 24.127L13.173 30.9818C13.0764 31.7709 13.8841 32.3603 14.6045 32.0297L20.2026 29.4693C20.4708 29.3476 20.7796 29.3476 21.0478 29.4693L26.6365 32.0297C27.36 32.3603 28.1647 31.7709 28.068 30.9818L27.2384 24.127C27.2041 23.8307 27.2977 23.5375 27.4973 23.3192L32.3344 18.0424C32.8801 17.4499 32.5496 16.4862 31.7543 16.3521L25.3984 15.2793C25.1146 15.2325 24.8651 15.0672 24.7123 14.824L21.4782 9.77481C21.079 9.15107 20.1652 9.15107 19.766 9.77481H19.7722Z" fill="white"/>
</mask>
<g mask="url(#mask0_4632_4983)">
<path d="M19.7722 9.77481L16.5319 14.8271C16.376 15.0672 16.1265 15.2325 15.8458 15.2793L9.48673 16.3521C8.69146 16.4862 8.36088 17.4468 8.90665 18.0424L13.7438 23.3192C13.9434 23.5375 14.04 23.8338 14.0026 24.127L13.173 30.9818C13.0764 31.7709 13.8841 32.3603 14.6045 32.0297L20.2026 29.4693C20.4708 29.3476 20.7796 29.3476 21.0478 29.4693L26.6365 32.0297C27.36 32.3603 28.1647 31.7709 28.068 30.9818L27.2384 24.127C27.2041 23.8307 27.2977 23.5375 27.4973 23.3192L32.3344 18.0424C32.8801 17.4499 32.5496 16.4862 31.7543 16.3521L25.3984 15.2793C25.1146 15.2325 24.8651 15.0672 24.7123 14.824L21.4782 9.77481C21.079 9.15107 20.1652 9.15107 19.766 9.77481H19.7722Z" fill="white"/>
<path d="M23.7326 32.2293L19.8155 35.0642C19.6908 35.1546 19.5442 35.2045 19.3945 35.2108L10.2411 35.6287C9.87935 35.6443 9.55189 35.4104 9.45521 35.0611L7.04757 26.4535L4.27504 15.85C4.16277 15.4259 4.42474 14.9924 4.852 14.8926L17.3175 11.9673C17.6387 11.8924 17.9755 12.0265 18.1533 12.3072L21.9737 18.2701C22.0922 18.4541 22.2824 18.582 22.5008 18.6194L25.2826 19.0903C25.8908 19.1932 26.1465 19.9324 25.7286 20.3877L23.3023 23.0323C23.1494 23.2007 23.0746 23.4284 23.1027 23.653L24.0508 31.5058C24.0851 31.7865 23.9634 32.064 23.7326 32.2324V32.2293Z" fill="#FFEDBC"/>
<path fill-rule="evenodd" clip-rule="evenodd" d="M20.2439 15.2574C20.4774 15.4545 20.507 15.8035 20.3099 16.037L18.7789 17.8511C18.5077 18.2539 18.0857 18.5311 17.6052 18.6189L15.2266 19.2136C14.9302 19.2877 14.6298 19.1075 14.5557 18.811C14.4816 18.5146 14.6618 18.2142 14.9582 18.1401L17.3556 17.5408C17.3694 17.5374 17.3833 17.5345 17.3972 17.5321C17.5929 17.4989 17.7632 17.3858 17.8694 17.2204C17.8824 17.2002 17.8967 17.1808 17.9122 17.1625L19.4643 15.3234C19.6614 15.0899 20.0105 15.0603 20.2439 15.2574Z" fill="#FFCA62"/>
<path d="M19.7722 9.77481L16.5319 14.8271C16.376 15.0672 16.1265 15.2325 15.8458 15.2793L9.48673 16.3521C8.69146 16.4862 8.36088 17.4468 8.90665 18.0424L13.7438 23.3192C13.9434 23.5375 14.04 23.8338 14.0026 24.127L13.173 30.9818C13.0764 31.7709 13.8841 32.3603 14.6045 32.0297L20.2026 29.4693C20.4708 29.3476 20.7796 29.3476 21.0478 29.4693L26.6365 32.0297C27.36 32.3603 28.1647 31.7709 28.068 30.9818L27.2384 24.127C27.2041 23.8307 27.2977 23.5375 27.4973 23.3192L32.3344 18.0424C32.8801 17.4499 32.5496 16.4862 31.7543 16.3521L25.3984 15.2793C25.1146 15.2325 24.8651 15.0672 24.7123 14.8239L21.4782 9.77481C21.079 9.15107 20.1652 9.15107 19.766 9.77481H19.7722Z" stroke="#E8A013" stroke-width="2.4" stroke-linecap="round" stroke-linejoin="round"/>
</g>
<path fill-rule="evenodd" clip-rule="evenodd" d="M7.55297 27.4223C7.57475 27.2768 7.65353 27.146 7.77192 27.0588L11.0406 24.6502C11.2591 24.4891 11.5621 24.5104 11.756 24.7004C11.9498 24.8904 11.9773 25.1929 11.8207 25.4146L9.35557 28.9059C9.25324 29.0508 9.0876 29.1379 8.91019 29.14C8.73279 29.1421 8.56514 29.059 8.4594 28.9165L7.65587 27.8339C7.56822 27.7158 7.5312 27.5677 7.55297 27.4223ZM8.89246 27.6435L8.94538 27.5685L8.87521 27.6202L8.89246 27.6435Z" fill="#E8A013"/>
<path fill-rule="evenodd" clip-rule="evenodd" d="M33.447 27.4223C33.4253 27.2768 33.3465 27.146 33.2281 27.0588L29.9594 24.6502C29.7409 24.4891 29.4379 24.5104 29.244 24.7004C29.0502 24.8904 29.0227 25.1929 29.1793 25.4146L31.6444 28.9059C31.7468 29.0508 31.9124 29.1379 32.0898 29.14C32.2672 29.1421 32.4349 29.059 32.5406 28.9165L33.3441 27.8339C33.4318 27.7158 33.4688 27.5677 33.447 27.4223ZM32.1075 27.6435L32.0546 27.5685L32.1248 27.6202L32.1075 27.6435Z" fill="#E8A013"/>
<path fill-rule="evenodd" clip-rule="evenodd" d="M12.2982 8.94148C12.5626 8.7892 12.9003 8.87971 13.0532 9.14379L15.0834 12.6523C15.2194 12.8872 15.1648 13.186 14.9547 13.3578C14.7445 13.5295 14.4409 13.5235 14.2377 13.3435L11.0379 10.5086C10.9047 10.3906 10.8364 10.2157 10.8544 10.0386C10.8724 9.86155 10.9744 9.70395 11.1287 9.61512L12.2982 8.94148ZM12.3471 10.1902L12.4153 10.2506L12.372 10.1758L12.3471 10.1902Z" fill="#E8A013"/>
<path fill-rule="evenodd" clip-rule="evenodd" d="M28.3991 8.94148C28.1347 8.7892 27.7969 8.87971 27.6441 9.14379L25.6138 12.6523C25.4779 12.8872 25.5324 13.186 25.7426 13.3578C25.9527 13.5295 26.2564 13.5235 26.4595 13.3435L29.6593 10.5086C29.7926 10.3906 29.8608 10.2157 29.8429 10.0386C29.8249 9.86155 29.7228 9.70395 29.5686 9.61512L28.3991 8.94148ZM28.3502 10.1902L28.282 10.2506L28.3253 10.1758L28.3502 10.1902Z" fill="#E8A013"/>
</svg>
