<svg width="28" height="28" viewBox="0 0 28 28" fill="none" xmlns="http://www.w3.org/2000/svg">
<g clip-path="url(#clip0_408_5324)">
<path d="M10.144 24.8796C9.03824 27.317 6.29091 28.5501 3.73483 27.7562C1.17874 26.9623 -0.38663 24.3898 0.0829485 21.7548C0.552582 19.1198 2.91026 17.2464 5.58324 17.3845C6.2492 17.4155 6.90302 17.5745 7.5089 17.8526C7.81145 17.9886 8.0993 18.1552 8.36796 18.3497C10.456 19.8141 11.2027 22.5594 10.144 24.8796Z" fill="#55B0CE"/>
<path d="M3.31582 22.2106C3.84891 22.2106 4.28106 21.7785 4.28106 21.2454C4.28106 20.7123 3.84891 20.2802 3.31582 20.2802C2.78274 20.2802 2.35059 20.7123 2.35059 21.2454C2.35059 21.7785 2.78274 22.2106 3.31582 22.2106Z" fill="white" fill-opacity="0.8"/>
<path d="M27.523 24.8797C26.3763 27.4121 23.4702 28.6311 20.86 27.6744C18.2498 26.7178 16.8196 23.9095 17.581 21.2359C17.6548 20.9803 17.7467 20.7303 17.8561 20.4878C19.0689 17.8183 22.216 16.6374 24.8855 17.8502C27.555 19.063 28.7358 22.2102 27.523 24.8797Z" fill="#70BB85"/>
<path d="M21.2494 26.0619C21.7825 26.0619 22.2147 25.6298 22.2147 25.0967C22.2147 24.5636 21.7825 24.1315 21.2494 24.1315C20.7163 24.1315 20.2842 24.5636 20.2842 25.0967C20.2842 25.6298 20.7163 26.0619 21.2494 26.0619Z" fill="white" fill-opacity="0.8"/>
<path d="M22.3788 20.6519C22.1585 20.7784 21.9089 20.8449 21.6549 20.8449C21.1381 20.8469 20.6604 20.5702 20.4049 20.121L19.4542 18.4753L14.874 10.5458C15.8487 10.3855 16.7586 9.95399 17.4995 9.30066L22.1761 17.3991L22.9097 18.6732C23.1019 19.0059 23.1539 19.4015 23.0544 19.7726C22.9548 20.1437 22.7118 20.4601 22.3788 20.6519Z" fill="#9CC8DF"/>
<path d="M17.5815 24.1316H9.65687C8.85723 24.1316 8.20898 23.4834 8.20898 22.6837C8.20898 21.8841 8.85723 21.2358 9.65687 21.2358H17.5815C17.3112 22.1822 17.3112 23.1853 17.5815 24.1316Z" fill="#9CC8DF"/>
<path d="M19.3091 5.30919C19.3077 7.90355 17.4326 10.1174 14.8738 10.5456C14.5852 10.5943 14.293 10.6185 14.0002 10.618C11.0682 10.618 8.69141 8.24115 8.69141 5.30919C8.69141 2.37724 11.0683 0.000366211 14.0002 0.000366211C16.9322 0.000366211 19.3091 2.37724 19.3091 5.30919Z" fill="#E67B7B"/>
<path d="M14.4828 3.86138C15.0159 3.86138 15.448 3.42923 15.448 2.89614C15.448 2.36306 15.0159 1.93091 14.4828 1.93091C13.9497 1.93091 13.5176 2.36306 13.5176 2.89614C13.5176 3.42923 13.9497 3.86138 14.4828 3.86138Z" fill="white" fill-opacity="0.8"/>
<path d="M13.8745 8.79375C13.8548 8.84022 13.8323 8.88532 13.8069 8.9289L12.8996 10.5023L8.37254 18.3449L8.36773 18.3497C8.09907 18.1551 7.81122 17.9886 7.50867 17.8526C6.90274 17.5744 6.24897 17.4155 5.58301 17.3844V17.3796L10.332 9.15092L11.2972 7.48107C11.4891 7.14812 11.8054 6.90505 12.1766 6.80549C12.5477 6.70593 12.9432 6.75798 13.276 6.95021C13.915 7.32329 14.1724 8.11642 13.8745 8.79375Z" fill="#9CC8DF"/>
</g>
<defs>
<clipPath id="clip0_408_5324">
<rect width="28" height="28" fill="white"/>
</clipPath>
</defs>
</svg>
