<svg xmlns="http://www.w3.org/2000/svg" width="22" height="22" fill="none" viewBox="0 0 22 22"><path fill="#80A5BA" d="M14.426 9h-1.233a2.56 2.56 0 0 0-1.039-1.61 2.8 2.8 0 0 0-.85-.418 3.4 3.4 0 0 0-.975-.14q-.924 0-1.675.468-.745.466-1.188 1.377-.438.909-.438 2.232t.438 2.232q.442.91 1.188 1.377.751.468 1.675.468.508 0 .975-.14.468-.138.85-.412a2.61 2.61 0 0 0 1.04-1.616h1.232q-.14.78-.507 1.397-.367.616-.915 1.05a4 4 0 0 1-1.228.65q-.675.225-1.447.224-1.302 0-2.316-.636t-1.596-1.81-.582-2.784.582-2.784 1.596-1.81 2.316-.636q.77 0 1.447.224.682.224 1.228.656.547.428.915 1.044.367.612.507 1.397"/><rect width="21" height="21" x=".5" y=".5" stroke="#80A5BA" rx="10.5"/></svg>