<svg width="40" height="41" viewBox="0 0 40 41" fill="none" xmlns="http://www.w3.org/2000/svg">
<rect x="0.5" y="1.36768" width="39" height="39" rx="3.5" stroke="#D0E4F1"/>
<path d="M30.1577 11.8328H32.7061V32.1588H19.999L29.7534 29.7217C29.9907 29.6631 30.1577 29.4493 30.1577 29.2032V11.8328Z" fill="white"/>
<path fill-rule="evenodd" clip-rule="evenodd" d="M29.5591 11.8324C29.5591 11.5011 29.8277 11.2324 30.1591 11.2324H32.7075C33.0389 11.2324 33.3075 11.5011 33.3075 11.8324V32.1585C33.3075 32.4898 33.0389 32.7585 32.7075 32.7585H20.0004C19.6974 32.7585 19.4419 32.5325 19.4049 32.2317C19.3679 31.931 19.561 31.6498 19.855 31.5764L29.5591 29.1518V11.8324ZM30.7591 12.4324V29.2029C30.7591 29.7227 30.4061 30.1782 29.8994 30.3037C29.8991 30.3037 29.8989 30.3038 29.8987 30.3038L24.8771 31.5585H32.1075V12.4324H30.7591Z" fill="#1960CA"/>
<path d="M19.999 12.2512V32.1584V12.2512Z" fill="#B8D1F5"/>
<path d="M19.999 12.2512V32.1584" stroke="#1960CA" stroke-width="0.585849" stroke-linecap="round" stroke-linejoin="round"/>
<path d="M19.999 32.1587L30.1577 29.619V9.29297L20.4033 11.7301C20.166 11.7887 19.999 12.0025 19.999 12.2486" fill="#B8D1F5"/>
<path fill-rule="evenodd" clip-rule="evenodd" d="M30.5275 8.81998C30.6731 8.93368 30.7582 9.10813 30.7582 9.29288V29.6189C30.7582 29.8942 30.5708 30.1342 30.3037 30.201L20.1451 32.7407C19.8236 32.821 19.4978 32.6256 19.4175 32.3041C19.3371 31.9826 19.5326 31.6569 19.854 31.5765L29.5582 29.1505V10.0612L20.5974 12.3001C20.5712 12.6073 20.3135 12.8485 19.9996 12.8485C19.6682 12.8485 19.3996 12.5799 19.3996 12.2485C19.3996 11.7288 19.7524 11.2733 20.259 11.1477L20.26 11.1475L30.0127 8.71077C30.192 8.66599 30.3819 8.70627 30.5275 8.81998Z" fill="#1960CA"/>
<path fill-rule="evenodd" clip-rule="evenodd" d="M28.5905 15.0791C28.6709 15.4006 28.4754 15.7264 28.154 15.8067L22.2955 17.2714C21.974 17.3517 21.6482 17.1563 21.5679 16.8348C21.4875 16.5133 21.6829 16.1876 22.0044 16.1072L27.8629 14.6426C28.1844 14.5622 28.5102 14.7577 28.5905 15.0791Z" fill="#669BE9"/>
<path fill-rule="evenodd" clip-rule="evenodd" d="M28.5905 18.8929C28.6709 19.2143 28.4754 19.5401 28.154 19.6205L22.2955 21.0851C21.974 21.1655 21.6482 20.97 21.5679 20.6485C21.4875 20.327 21.6829 20.0013 22.0044 19.9209L27.8629 18.4563C28.1844 18.3759 28.5102 18.5714 28.5905 18.8929Z" fill="#669BE9"/>
<path fill-rule="evenodd" clip-rule="evenodd" d="M25.6611 23.5471C25.7418 23.8685 25.5467 24.1944 25.2253 24.2751L22.296 25.0103C21.9746 25.091 21.6487 24.8959 21.568 24.5745C21.4873 24.2531 21.6825 23.9271 22.0039 23.8465L24.9331 23.1112C25.2545 23.0305 25.5805 23.2257 25.6611 23.5471Z" fill="#669BE9"/>
<path d="M8.56641 11.8328H19.4632C19.7591 11.8328 19.9993 12.073 19.9993 12.3688V31.6228C19.9993 31.9186 19.7591 32.1588 19.4632 32.1588H8.56641V11.8328Z" fill="#B8D1F5"/>
<path fill-rule="evenodd" clip-rule="evenodd" d="M7.9668 11.8324C7.9668 11.5011 8.23543 11.2324 8.5668 11.2324H19.4636C20.0908 11.2324 20.5997 11.7412 20.5997 12.3685V31.6224C20.5997 32.2496 20.0908 32.7585 19.4636 32.7585H8.5668C8.23543 32.7585 7.9668 32.4898 7.9668 32.1585V11.8324ZM9.1668 12.4324V31.5585H19.3996V12.4324H9.1668Z" fill="#1960CA"/>
<path fill-rule="evenodd" clip-rule="evenodd" d="M10.9096 14.4048C11.2409 14.4048 11.5096 14.6734 11.5096 15.0048V29.5573C11.5096 29.8887 11.2409 30.1573 10.9096 30.1573C10.5782 30.1573 10.3096 29.8887 10.3096 29.5573V15.0048C10.3096 14.6734 10.5782 14.4048 10.9096 14.4048Z" fill="#669BE9"/>
</svg>
