<svg xmlns="http://www.w3.org/2000/svg" width="40" height="41" fill="none" viewBox="0 0 40 41"><rect width="39" height="39" x=".5" y="1.368" stroke="#D0E4F1" rx="3.5"/><g clip-path="url(#a)"><mask id="b" width="25" height="28" x="7" y="7" maskUnits="userSpaceOnUse" style="mask-type:luminance"><path fill="#fff" d="M30.016 31.343V15.416c0-.383.31-.693.694-.693s.693-.31.693-.694v-1.39a.693.693 0 0 0-.694-.693h-6.93a.693.693 0 0 0-.693.694v1.39c0 .383.31.693.694.693s.693.31.693.693v9.694l-4.096-8.873a.7.7 0 0 1-.064-.29v-4.694c0-.383.31-.693.693-.693.384 0 .694-.31.694-.694v-1.38a.693.693 0 0 0-.694-.693h-6.93a.693.693 0 0 0-.693.693v1.38c0 .384.31.694.693.694.384 0 .694.31.694.693v4.693a.7.7 0 0 1-.064.291l-6.54 14.18c-.8 1.728.463 3.706 2.37 3.706h16.71l.007-.01a2.773 2.773 0 0 0 2.773-2.776"/></mask><g mask="url(#b)"><path fill="#fff" d="M30.016 31.344V15.417c0-.384.31-.694.694-.694s.693-.31.693-.693v-1.39a.693.693 0 0 0-.694-.693h-6.93a.693.693 0 0 0-.693.693v1.39c0 .384.31.693.694.693s.693.31.693.694v9.693l-4.096-8.872a.7.7 0 0 1-.064-.29v-4.694c0-.384.31-.694.693-.694.384 0 .694-.31.694-.693v-1.38a.693.693 0 0 0-.694-.694h-6.93a.693.693 0 0 0-.693.694v1.38c0 .383.31.693.693.693.384 0 .694.31.694.694v4.693a.7.7 0 0 1-.064.29l-6.54 14.18c-.8 1.729.463 3.706 2.37 3.706h16.71l.007-.01a2.774 2.774 0 0 0 2.773-2.776"/><path stroke="#1960CA" stroke-linecap="round" stroke-linejoin="round" stroke-width="1.278" d="M30.016 31.344V15.417c0-.384.31-.694.694-.694s.693-.31.693-.693v-1.39a.693.693 0 0 0-.694-.693h-6.93a.693.693 0 0 0-.693.693v1.39c0 .384.31.693.694.693s.693.31.693.694v9.693l-4.096-8.872a.7.7 0 0 1-.064-.29v-4.694c0-.384.31-.694.693-.694.384 0 .694-.31.694-.693v-1.38a.693.693 0 0 0-.694-.694h-6.93a.693.693 0 0 0-.693.694v1.38c0 .383.31.693.693.693.384 0 .694.31.694.694v4.693a.7.7 0 0 1-.064.29l-6.54 14.18c-.8 1.729.463 3.706 2.37 3.706h16.71l.007-.01a2.774 2.774 0 0 0 2.773-2.776"/><path fill="#B8D1F5" d="M16.981 7.65v8.808l6.412 13.898 3.275 6.988-13.368-.457-9.086-3.591L7.802 7.649z"/><path fill="#B8D1F5" d="M27.512 11.867h-4.774l.364 5.578 1.125 7.735h.339l.013 6.3.38 1.387 1.134.975 1.31.776.109-.82z"/><path stroke="#1960CA" stroke-linecap="round" stroke-linejoin="round" stroke-width="2.642" d="M30.016 31.343V15.416c0-.383.31-.693.694-.693s.693-.31.693-.693v-1.39a.693.693 0 0 0-.694-.694h-6.93a.693.693 0 0 0-.693.694v1.39c0 .383.31.693.694.693s.693.31.693.693v9.694l-4.096-8.873a.7.7 0 0 1-.064-.29v-4.694c0-.383.31-.693.693-.693.384 0 .694-.31.694-.693v-1.38a.693.693 0 0 0-.694-.694h-6.93a.693.693 0 0 0-.693.693v1.38c0 .384.31.694.693.694.384 0 .694.31.694.693v4.694a.7.7 0 0 1-.064.29l-6.54 14.18c-.8 1.728.463 3.706 2.37 3.706h16.71l.007-.01a2.774 2.774 0 0 0 2.773-2.776"/><path fill="#1960CA" fill-rule="evenodd" d="M23.857 19.812a.66.66 0 0 1 .661-.66h5.54a.66.66 0 1 1 0 1.321h-5.54a.66.66 0 0 1-.66-.66" clip-rule="evenodd"/><path fill="#669BE9" fill-rule="evenodd" d="M17.253 19.549a.66.66 0 0 1 .323.877l-5.09 11.013a.66.66 0 1 1-1.2-.554l5.09-11.014a.66.66 0 0 1 .877-.322" clip-rule="evenodd"/><path fill="#1960CA" fill-rule="evenodd" d="M7.516 30.356a.66.66 0 0 1 .66-.66H24.52a.66.66 0 1 1 0 1.32H8.176a.66.66 0 0 1-.66-.66" clip-rule="evenodd"/><path fill="#1960CA" fill-rule="evenodd" d="M25.153 23.647a.66.66 0 0 1 .66.66v6.224c0 .645.188 1.181.487 1.543.287.35.706.573 1.275.573a.66.66 0 0 1 0 1.321c-.962 0-1.754-.398-2.295-1.053-.528-.64-.786-1.488-.788-2.373v-6.235a.66.66 0 0 1 .66-.66" clip-rule="evenodd"/><path fill="#1960CA" d="m23.116 25.408 1.679 3.303.523-2.15z"/></g></g><defs><clipPath id="a"><path fill="#fff" d="M7.924 7.793h23.483v26.33H7.924z"/></clipPath></defs></svg>