<svg xmlns="http://www.w3.org/2000/svg" width="40" height="41" fill="none" viewBox="0 0 40 41"><rect width="39" height="39" x=".5" y="1.368" stroke="#D0E4F1" rx="3.5"/><g clip-path="url(#a)"><path fill="#fff" d="m15.435 33.993-4.32 1.08-1.08-3.24 4.32-1.62z"/><path fill="#EBD6FF" d="m10.575 32.373-2.7-9.72 3.78-1.08 2.7 9.72z"/><path fill="#fff" d="m26.042 27.916.577 2.158a1.185 1.185 0 0 1-.837 1.45l-7.295 1.952a.76.76 0 0 1-.934-.54L14.4 21.167c-.12-.452-.095-.93.073-1.363l1.953-5.019a1.71 1.71 0 1 1 3.187 1.242l-1.307 3.352 11.366-3.045a1.706 1.706 0 1 1 .885 3.297l-4.775 1.281"/><path stroke="#702BB6" stroke-linecap="round" stroke-linejoin="round" stroke-width="1.296" d="m26.042 27.916.577 2.158a1.185 1.185 0 0 1-.837 1.45l-7.295 1.952a.76.76 0 0 1-.934-.54L14.4 21.167c-.12-.452-.095-.93.073-1.363l1.953-5.019a1.71 1.71 0 1 1 3.187 1.242l-1.307 3.352 11.366-3.045a1.706 1.706 0 1 1 .885 3.297l-4.775 1.281"/><path fill="#EBD6FF" d="m17.056 30.753-2.7-9.72 2.16-6.48 2.16-1.08 1.08 2.16-1.08 3.78 11.34-3.24 1.62 1.08-.54 2.16-4.32 1.08.54 3.24-1.08 1.08.54 3.24z"/><path fill="#B26EF7" fill-rule="evenodd" d="M12.275 23.005a.65.65 0 0 1-.433.808l-2.16.654a.648.648 0 0 1-.375-1.24l2.16-.654a.65.65 0 0 1 .808.432" clip-rule="evenodd"/><path fill="#702BB6" fill-rule="evenodd" d="M8.33 22.724a.05.05 0 0 0-.036.061l3.174 11.85a.05.05 0 0 0 .062.035l3.045-.816a.05.05 0 0 0 .036-.062l-3.175-11.849a.05.05 0 0 0-.062-.035zm-1.288.397a1.346 1.346 0 0 1 .952-1.649l3.045-.816a1.346 1.346 0 0 1 1.649.952l3.175 11.849a1.346 1.346 0 0 1-.952 1.648l-3.046.816a1.346 1.346 0 0 1-1.648-.952z" clip-rule="evenodd"/><path stroke="#B26EF7" stroke-linecap="round" stroke-linejoin="round" stroke-width="1.296" d="m21.357 9.143 1.914 3.512-.67-3.733zM26.946 7.395l-1.496 3.543.268-3.835zM29.956 12.159l-3.717 1.473 2.898-2.442z"/><path fill="#702BB6" fill-rule="evenodd" d="M26.37 20.085a.65.65 0 0 1 .794.458l.578 2.158a1.835 1.835 0 0 1-1.294 2.242l-.644.173a.648.648 0 0 1-.337-1.251l.642-.173a.54.54 0 0 0 .38-.656l-.576-2.158a.65.65 0 0 1 .458-.793" clip-rule="evenodd"/><path fill="#702BB6" fill-rule="evenodd" d="M26.118 23.692a.65.65 0 0 1 .794.458l.577 2.158a1.833 1.833 0 0 1-1.294 2.242h-.002l-.709.19a.648.648 0 1 1-.334-1.253l.707-.188a.537.537 0 0 0 .38-.657l-.577-2.157a.65.65 0 0 1 .458-.793" clip-rule="evenodd"/><path stroke="#702BB6" stroke-linecap="round" stroke-linejoin="round" stroke-width="1.378" d="m26.042 27.916.577 2.158a1.185 1.185 0 0 1-.837 1.45l-7.295 1.952a.76.76 0 0 1-.934-.54L14.4 21.167c-.12-.452-.095-.93.073-1.363l1.953-5.019a1.71 1.71 0 1 1 3.187 1.242l-1.307 3.352 11.366-3.045a1.706 1.706 0 1 1 .885 3.297l-4.775 1.281"/></g><defs><clipPath id="a"><path fill="#fff" d="M6.255 5.913h27v30.24h-27z"/></clipPath></defs></svg>