<svg xmlns="http://www.w3.org/2000/svg" width="40" height="41" fill="none" viewBox="0 0 40 41"><rect width="39" height="39" x=".5" y="1.368" stroke="#D0E4F1" rx="3.5"/><path fill="#fff" stroke="#DE7112" stroke-linecap="round" stroke-linejoin="round" stroke-width=".656" d="m18.33 14.688 1.138-.253 1.34-4.89a.3.3 0 0 1 .358-.216l9.25 2.066c.17.039.271.21.226.378l-1.332 4.86V28.26l-9.842 2.192-9.849-2.192V16.634l-1.282-4.682a.304.304 0 0 1 .358-.377l9.177 2.041c.111.025.197.11.227.219z"/><path fill="#FFDCBD" d="M27.261 17.295v11.627l-7.793 1.53-9.849-2.192V16.633l-1.282-4.681a.304.304 0 0 1 .358-.378l9.179 2.042a.3.3 0 0 1 .227.216l.263.96 1.21-.334 9.059 2.123c.109.025.107.18 0 .205l-2.284.51z"/><path stroke="#FFAB61" stroke-linecap="round" stroke-width="1.27" d="M11.907 26.87V19.25"/><path fill="#DE7112" fill-rule="evenodd" d="M9.026 16.502a.61.61 0 0 1 .725-.461l9.849 2.191a.61.61 0 0 1 .476.593v11.627a.608.608 0 0 1-1.216 0v-11.14l-9.373-2.085a.61.61 0 0 1-.46-.725M18.874 14.303a.61.61 0 0 1 .726-.46l9.841 2.198a.608.608 0 1 1-.265 1.186l-9.841-2.199a.61.61 0 0 1-.46-.725" clip-rule="evenodd"/><path stroke="#DE7112" stroke-linecap="round" stroke-linejoin="round" stroke-width=".656" d="M9.62 16.634V28.26l9.848 2.192"/><path fill="#DE7112" fill-rule="evenodd" d="M29.902 16.502a.607.607 0 0 1-.461.725l-9.842 2.191a.608.608 0 1 1-.264-1.186l9.842-2.191a.61.61 0 0 1 .725.46" clip-rule="evenodd"/><path stroke="#DE7112" stroke-linecap="round" stroke-linejoin="round" stroke-width=".656" d="m18.33 14.688 1.138-.253M29.309 16.634V28.26l-9.842 2.192M29.31 16.634l1.416-5.168M19.468 14.435l1.34-4.89a.3.3 0 0 1 .358-.216l9.56 2.134"/><path fill="#DE7112" fill-rule="evenodd" d="M17.89 13.07a.61.61 0 0 1 .746.426l1.417 5.168a.608.608 0 0 1-1.172.321l-1.417-5.168a.607.607 0 0 1 .426-.747" clip-rule="evenodd"/><path stroke="#DE7112" stroke-linecap="round" stroke-linejoin="round" stroke-width=".656" d="m9.62 16.633-1.283-4.681a.304.304 0 0 1 .358-.378l9.356 2.082"/><path stroke="#DE7112" stroke-miterlimit="10" stroke-width="1.215" d="m18.33 14.688 1.138-.253 1.34-4.89a.3.3 0 0 1 .358-.216l9.25 2.066c.17.039.271.21.226.378l-1.332 4.86V28.26l-9.842 2.192-9.849-2.192V16.634l-1.282-4.682a.304.304 0 0 1 .358-.377l9.177 2.041c.111.025.197.11.227.219z"/><rect width="11.428" height="13.967" x="22.064" y="20.521" fill="#fff" rx="1.27"/><path fill="#FFDCBD" d="M23.031 20.989h7.09v13.165h-7.09z"/><path fill="#DE7112" fill-rule="evenodd" d="M32.222 21.736h-8.888a.054.054 0 0 0-.054.055v11.427c0 .03.024.055.054.055h8.888c.03 0 .055-.025.055-.055V21.791a.054.054 0 0 0-.055-.055m-8.888-1.215a1.27 1.27 0 0 0-1.27 1.27v11.427c0 .701.569 1.27 1.27 1.27h8.888a1.27 1.27 0 0 0 1.27-1.27V21.791a1.27 1.27 0 0 0-1.27-1.27z" clip-rule="evenodd"/><path fill="#DE7112" fill-rule="evenodd" d="M24.505 25.585c0-.336.272-.608.608-.608h5.586a.608.608 0 1 1 0 1.215h-5.587a.61.61 0 0 1-.607-.608M24.505 29.635c0-.335.272-.607.608-.607h5.586a.608.608 0 1 1 0 1.215h-5.587a.61.61 0 0 1-.607-.608" clip-rule="evenodd"/></svg>