<svg xmlns="http://www.w3.org/2000/svg" width="40" height="41" fill="none" viewBox="0 0 40 41"><rect width="39" height="39" x=".5" y="1.368" stroke="#D0E4F1" rx="3.5"/><mask id="a" width="22" height="27" x="9" y="8" maskUnits="userSpaceOnUse" style="mask-type:luminance"><path fill="#fff" stroke="#fff" stroke-width=".615" d="m19.61 34.02-.318-.074a13.35 13.35 0 0 1-9.978-12.922v-.497l-.007.003v-7.012c0-.109.086-.203.205-.21 4.76-.276 7.916-2.443 9.994-4.926a.204.204 0 0 1 .314-.002 13.64 13.64 0 0 0 9.991 4.938h.002a.21.21 0 0 1 .21.209l-.003 7.491A13.35 13.35 0 0 1 19.72 34.02a.3.3 0 0 1-.111 0Z"/></mask><g mask="url(#a)"><path fill="#B7DACA" d="m12.496 30.663-3.227-.19-3.49-1.648.659-10.248L4 7.839 16.907 4l7.956 1.448v14.976a9.32 9.32 0 0 1-7.273 9.087v.006l-5.094 1.143z"/><path stroke="#64AF8D" stroke-linecap="round" stroke-linejoin="round" stroke-width="1.2" d="M14.333 19.286v2.678a5.8 5.8 0 0 0 4 5.512"/><path stroke="#157B4D" stroke-miterlimit="10" stroke-width="1.2" d="M19.802 31.774a.5.5 0 0 1-.28 0c-4.78-1.386-8.063-5.711-8.063-10.756q0-.105-.009-.212v-5.118a.49.49 0 0 1 .403-.476 15.9 15.9 0 0 0 7.488-3.603.486.486 0 0 1 .64 0 15.9 15.9 0 0 0 7.484 3.603c.23.043.4.24.4.473v5.333c0 5.042-3.28 9.37-8.063 10.756Z"/></g><path stroke="#157B4D" stroke-miterlimit="10" stroke-width="1.2" d="M19.853 34.666a.63.63 0 0 1-.364 0C13.278 32.865 9.012 27.245 9.012 20.69q0-.138-.012-.276v-6.65c0-.304.224-.563.523-.62a20.7 20.7 0 0 0 9.73-4.68.63.63 0 0 1 .831 0 20.7 20.7 0 0 0 9.727 4.68c.3.056.519.312.519.616v6.93c0 6.55-4.262 12.175-10.477 13.976Z"/></svg>