<svg width="202" height="48" viewBox="0 0 110 26" fill="none" xmlns="http://www.w3.org/2000/svg">
<path d="M28.0959 16.781V9.01918H26.522V6.98766H28.0959V3.82129H30.4936V6.98766H32.0676V9.01918H30.4936V16.781H28.0959Z" fill="#1B69DE"/>
<path d="M38.0114 8.97676C37.0846 9.04681 36.4374 9.28499 36.0697 9.67728C35.7019 10.0696 35.5254 10.7701 35.5254 11.7929V16.7806H33.1277V6.98727H35.3783V8.12212C35.746 7.6878 36.1285 7.36555 36.5698 7.1554C36.9964 6.94524 37.4818 6.84717 38.0261 6.84717V8.97676H38.0114Z" fill="#1B69DE"/>
<path d="M46.0122 16.7812V15.7164C45.6592 16.1648 45.262 16.487 44.806 16.7112C44.35 16.9213 43.8352 17.0334 43.2615 17.0334C41.967 17.0334 40.9815 16.6551 40.2901 15.8986C39.5988 15.142 39.2457 14.0632 39.2457 12.6481V6.97388H41.6728V11.3732C41.6728 12.6902 41.8347 13.6008 42.1436 14.0912C42.4672 14.5816 43.0114 14.8197 43.7911 14.8197C44.5854 14.8197 45.1591 14.5536 45.5121 14.0071C45.8651 13.4607 46.027 12.536 46.027 11.2331V6.98789H48.3805V16.7812H46.0122Z" fill="#1B69DE"/>
<path d="M52.3535 12.6053C52.4417 13.3058 52.7359 13.8662 53.236 14.2725C53.7509 14.6788 54.3981 14.889 55.2072 14.889C55.7367 14.889 56.2221 14.7769 56.6487 14.5668C57.0753 14.3566 57.4136 14.0484 57.6637 13.6701H60.2379C59.7966 14.7349 59.1494 15.5615 58.2815 16.164C57.4136 16.7524 56.4134 17.0466 55.266 17.0466C54.5011 17.0466 53.795 16.9205 53.1478 16.6543C52.5006 16.4021 51.9269 16.0098 51.412 15.5055C50.9266 15.0291 50.5441 14.4687 50.2794 13.8382C50.0146 13.2077 49.8822 12.5633 49.8822 11.8908C49.8822 11.2042 49.9999 10.5598 50.2499 9.95731C50.5 9.35486 50.8531 8.80846 51.3385 8.3321C51.868 7.7997 52.4564 7.3934 53.1184 7.11319C53.7803 6.83298 54.457 6.69287 55.163 6.69287C56.0603 6.69287 56.8841 6.88902 57.6637 7.2673C58.4433 7.6596 59.0906 8.19199 59.6348 8.89252C59.9584 9.31283 60.2085 9.78919 60.3703 10.3076C60.5321 10.826 60.6057 11.4284 60.6057 12.1009C60.6057 12.157 60.6057 12.241 60.591 12.3391C60.591 12.4512 60.5763 12.5352 60.5763 12.5773H52.3535V12.6053ZM58.0315 10.7979C57.8255 10.1394 57.4872 9.64909 57.0018 9.31283C56.5163 8.97658 55.9132 8.79444 55.1777 8.79444C54.5452 8.79444 53.9715 8.97658 53.4714 9.34085C52.9713 9.70512 52.6329 10.1955 52.4564 10.7979H58.0315Z" fill="#1B69DE"/>
<path d="M64.4437 6.98775V8.09457C64.7968 7.64624 65.1939 7.32399 65.6499 7.09983C66.1059 6.88967 66.6208 6.77759 67.1945 6.77759C68.0182 6.77759 68.739 6.91769 69.3274 7.1979C69.9158 7.47811 70.4159 7.91244 70.8425 8.50088C71.2544 7.91244 71.6957 7.49212 72.2105 7.1979C72.7106 6.91769 73.2696 6.77759 73.8874 6.77759C75.1525 6.77759 76.1086 7.15587 76.7853 7.91244C77.4619 8.669 77.8002 9.74781 77.8002 11.1489V16.7811H75.4467V12.4378C75.4467 11.1068 75.2996 10.2102 74.9907 9.71979C74.6818 9.24343 74.1522 9.00525 73.3873 9.00525C72.593 9.00525 72.034 9.27145 71.6957 9.81786C71.3573 10.3503 71.1808 11.275 71.1808 12.5779V16.7811H68.8125V12.4378C68.8125 11.1208 68.6507 10.2102 68.3418 9.7338C68.0329 9.25744 67.4739 9.01926 66.6943 9.01926C65.9 9.01926 65.3263 9.28546 64.9733 9.83187C64.6202 10.3643 64.4437 11.289 64.4437 12.5919V16.7811H62.1343V6.98775H64.4437Z" fill="#22B573"/>
<path d="M81.7279 12.6053C81.8162 13.3058 82.1104 13.8662 82.6105 14.2725C83.1254 14.6788 83.7726 14.889 84.5816 14.889C85.1112 14.889 85.5966 14.7769 86.0232 14.5668C86.4498 14.3566 86.7881 14.0484 87.0382 13.6701H89.6124C89.1711 14.7349 88.5238 15.5615 87.656 16.164C86.7881 16.7524 85.7878 17.0466 84.6405 17.0466C83.8756 17.0466 83.1695 16.9205 82.5223 16.6543C81.875 16.4021 81.3014 16.0098 80.7865 15.5055C80.3011 15.0291 79.9186 14.4687 79.6539 13.8382C79.3891 13.2077 79.2567 12.5633 79.2567 11.8908C79.2567 11.2042 79.3744 10.5598 79.6245 9.95731C79.8745 9.35486 80.2276 8.80846 80.713 8.3321C81.2425 7.7997 81.8309 7.3934 82.4929 7.11319C83.1548 6.83298 83.8314 6.69287 84.5375 6.69287C85.4348 6.69287 86.2585 6.88902 87.0382 7.2673C87.8178 7.6596 88.465 8.19199 89.0093 8.89252C89.3329 9.31283 89.583 9.78919 89.7448 10.3076C89.9066 10.826 89.9801 11.4284 89.9801 12.1009C89.9801 12.157 89.9801 12.241 89.9654 12.3391C89.9654 12.4512 89.9507 12.5352 89.9507 12.5773H81.7279V12.6053ZM87.4059 10.7979C87.2 10.1394 86.8616 9.64909 86.3762 9.31283C85.8908 8.97658 85.2877 8.79444 84.5522 8.79444C83.9197 8.79444 83.346 8.97658 82.8459 9.34085C82.3458 9.70512 82.0074 10.1955 81.8309 10.7979H87.4059Z" fill="#22B573"/>
<path d="M99.4539 7.77225V3.82129H101.808V16.781H99.4539V15.9824C98.9832 16.3327 98.4831 16.5989 97.9535 16.781C97.424 16.9491 96.865 17.0472 96.2472 17.0472C95.6 17.0472 94.9822 16.9491 94.4085 16.753C93.8348 16.5568 93.3199 16.2766 92.8639 15.8983C92.2461 15.394 91.7607 14.7775 91.4224 14.091C91.084 13.3904 90.9222 12.6479 90.9222 11.8633C90.9222 11.1348 91.0693 10.4482 91.3782 9.77574C91.6871 9.11725 92.1284 8.52881 92.6874 8.05246C93.1581 7.63214 93.6877 7.3099 94.2908 7.08573C94.8939 6.86156 95.5411 6.74948 96.2325 6.74948C96.8944 6.74948 97.4828 6.83354 97.983 6.98766C98.5272 7.1698 99.0126 7.42199 99.4539 7.77225ZM99.351 11.9334C99.351 11.0927 99.0715 10.3922 98.5125 9.8458C97.9535 9.28538 97.2622 9.00517 96.4237 9.00517C95.6 9.00517 94.8939 9.28538 94.3202 9.85981C93.7318 10.4342 93.4523 11.1067 93.4523 11.9053C93.4523 12.732 93.7465 13.4185 94.3349 13.9649C94.9233 14.5113 95.6588 14.7915 96.5561 14.7915C97.3357 14.7915 98.0124 14.5113 98.5566 13.9649C99.0862 13.3904 99.351 12.7179 99.351 11.9334Z" fill="#22B573"/>
<path d="M105.351 13.5306V13.6707C105.351 14.105 105.469 14.4553 105.704 14.7215C105.94 14.9877 106.234 15.1278 106.602 15.1278C106.955 15.1278 107.234 15.0297 107.455 14.8196C107.676 14.6234 107.793 14.3572 107.793 14.049C107.793 13.7548 107.705 13.5166 107.543 13.3344C107.381 13.1523 107.087 12.9562 106.675 12.774C106.44 12.6759 106.087 12.5358 105.631 12.3537C105.175 12.1716 104.881 12.0315 104.748 11.9334C104.366 11.6392 104.086 11.3029 103.91 10.9386C103.733 10.5744 103.645 10.1541 103.645 9.69171C103.645 8.8651 103.954 8.16457 104.557 7.60415C105.16 7.02972 105.896 6.74951 106.764 6.74951C107.676 6.74951 108.411 7.0017 108.941 7.50608C109.47 8.01046 109.764 8.71098 109.808 9.62166H107.661V9.56562C107.661 9.25739 107.573 9.0052 107.411 8.82307C107.234 8.64093 106.999 8.55686 106.69 8.55686C106.425 8.55686 106.205 8.64093 106.028 8.82307C105.852 9.0052 105.763 9.21536 105.763 9.48156C105.763 9.91588 106.219 10.3082 107.146 10.6724C107.396 10.7705 107.573 10.8406 107.705 10.8966C108.588 11.2749 109.191 11.6812 109.514 12.1155C109.838 12.5499 110 13.1383 110 13.8809C110 14.7915 109.676 15.5481 109.029 16.1506C108.382 16.753 107.558 17.0472 106.572 17.0472C105.587 17.0472 104.778 16.739 104.175 16.1085C103.571 15.4781 103.233 14.6234 103.174 13.5586L105.351 13.5306Z" fill="#22B573"/>
<path d="M11.0038 22.7638C10.7979 22.96 10.5919 23.1561 10.386 23.3523C10.6655 23.1001 10.9303 22.8479 11.2097 22.5957C11.2097 22.5957 11.2097 22.5957 11.195 22.5957C11.1362 22.6377 11.0626 22.6938 11.0038 22.7638Z" fill="#1B69DE"/>
<path d="M12.3558 7.51993C12.3705 6.72133 12.4 5.93674 12.6647 5.16617C13.1207 3.8772 14.3122 3.26074 15.4302 3.26074C15.8273 3.26074 16.1657 3.52694 16.2392 3.86319C16.2981 4.17142 16.0774 4.46565 15.6802 4.61976C15.6361 4.63377 15.592 4.64778 15.5479 4.66179C15.4596 4.68981 15.3713 4.71783 15.2831 4.74585C14.5623 4.97002 14.1504 5.46039 14.0916 6.1469C14.018 6.88946 14.0622 7.63201 14.018 8.36056C14.0033 8.59873 13.9004 8.85092 13.7533 9.04707C13.5767 9.31327 13.2531 9.32728 12.9442 9.24322C12.65 9.17317 12.4735 8.96301 12.4294 8.6828C12.3853 8.31853 12.3853 7.91222 12.3558 7.51993Z" fill="#1B69DE"/>
<path d="M21.344 5.97901C21.344 5.50266 21.2852 4.99828 21.1675 4.53594C20.5644 2.11212 18.505 0.360812 15.9161 0.0525809C13.9303 -0.185597 12.2092 0.388831 10.7824 1.70582C9.53206 2.86869 8.92896 4.29776 8.91425 5.951C8.89954 8.80913 8.91425 11.6673 8.91425 14.5254C8.91425 14.6235 8.91425 14.7216 8.91425 14.8336C9.32613 14.7776 9.75271 14.7916 10.2087 14.8757C11.9298 15.1839 13.1801 16.0666 13.6802 17.7338C13.7538 17.972 13.7832 18.2102 13.8273 18.4483V18.8827C13.7832 19.1068 13.7538 19.331 13.6949 19.5412C13.5037 20.2277 13.1213 20.8161 12.5917 21.3065C12.1357 21.7268 11.6797 22.1471 11.2237 22.5814C11.3267 22.6515 11.4002 22.7075 11.4885 22.7636C12.9153 23.7303 14.504 24.0946 16.225 23.8003C19.27 23.282 21.3587 20.8581 21.3587 17.9159C21.344 13.937 21.3588 9.95799 21.344 5.97901ZM19.27 12.0456C16.4898 12.0456 13.7685 12.0456 11.0178 12.0456C11.0178 11.9755 11.003 11.9054 11.003 11.8494C11.003 9.78987 10.9589 7.73033 11.0178 5.67079C11.0766 3.72333 12.8712 2.05608 14.8276 2.07009C15.519 2.07009 16.1956 2.07009 16.8281 2.3503C18.1961 2.96676 18.9905 4.00354 19.2111 5.41859C19.2552 5.72683 19.2552 6.03506 19.2552 6.34329C19.2552 8.13663 19.2552 9.91596 19.2552 11.7093C19.27 11.8074 19.27 11.9195 19.27 12.0456Z" fill="#1B69DE"/>
<path d="M13.6801 19.5556C13.739 19.3454 13.7684 19.1213 13.8125 18.8971V18.4628C13.7684 18.2246 13.739 17.9864 13.6654 17.7483C13.1653 16.081 11.9149 15.1983 10.1939 14.8901C9.7526 14.806 9.31131 14.792 8.89944 14.8481C8.89944 14.8621 8.89944 14.8621 8.89944 14.8761C8.23749 15.0162 7.67852 15.3244 7.1931 15.7728C7.00187 15.9409 6.79593 15.8708 6.63412 15.7167C5.79566 14.9041 4.75127 14.694 3.61861 14.8901C1.89757 15.1983 0.647232 16.081 0.147098 17.7483C0.073549 17.9864 0.0441294 18.2246 0 18.4628C0 18.6029 0 18.757 0 18.8971C0.0441294 19.1213 0.0735493 19.3454 0.132389 19.5556C0.323616 20.2421 0.706071 20.8306 1.23562 21.3209C2.6919 22.6799 4.17759 24.039 5.63386 25.398C5.95747 25.7062 6.35464 25.8883 6.78122 26.0004C6.8989 26.0004 7.00187 26.0004 7.11955 26.0004C7.69323 25.8883 8.1051 25.5521 8.50227 25.1598C9.12008 24.5433 9.7379 23.9549 10.3704 23.3524C9.63493 24.039 8.89944 24.7115 8.16395 25.398C8.89944 24.7115 9.63493 24.025 10.3704 23.3524C10.5764 23.1563 10.7823 22.9602 10.9882 22.764C11.0471 22.708 11.1206 22.6379 11.1795 22.5819C11.1795 22.5819 11.1795 22.5819 11.1942 22.5819C11.6502 22.1616 12.1062 21.7412 12.5622 21.3069C13.1064 20.8306 13.4889 20.2421 13.6801 19.5556ZM11.4442 19.4155C11.3118 19.7097 11.0912 20.0039 10.8558 20.2421C9.72318 21.3489 8.57582 22.4418 7.42845 23.5346C7.01658 23.9269 6.7518 23.9269 6.33993 23.5346C5.19256 22.4418 4.0452 21.3489 2.91254 20.2421C2.45654 19.8078 2.16234 19.2894 2.16234 18.6589C2.16234 17.37 3.42738 16.5013 4.75127 16.8656C5.26611 17.0057 5.6927 17.2999 6.06044 17.6502C6.86948 18.3927 6.91361 18.3647 7.70794 17.6502C8.11981 17.2719 8.59053 16.9637 9.16421 16.8376C9.94383 16.6694 10.6205 16.8656 11.1353 17.44C11.6649 18.0145 11.7678 18.701 11.4442 19.4155Z" fill="#22B573"/>
</svg>
